ffmpeg started on 2025-06-07 at 18:12:55
Report written to "D:\Convert\FFMetrics\reports\ssim_report-6.txt"
Log level: 32
Command line:
ffmpeg -hide_banner -nostdin -i "G:\\\xc0\xed\xe8\xec\xe5\\\xce\xed\xe3\xee\xe8\xed\xe3\xe8\\!_36_\xce\xf1\xe5\xed\xfc_2024\\DreamCast\\\xdf \xf1\xf2\xe0\xed\xf3 \xe7\xeb\xee\xe4\xe5\xe9\xea\xee\xe9, \xea\xee\xf2\xee\xf0\xe0\xff \xe2\xee\xe9\xe4\xb8\xf2 \xe2 \xe8\xf1\xf2\xee\xf0\xe8\xfe\\[DC] Rekishi ni Nokoru Akujo ni Naruzo - 04_Telegram_HEVC.mkv" -i "G:\\\xc0\xed\xe8\xec\xe5\\\xce\xed\xe3\xee\xe8\xed\xe3\xe8\\!_36_\xce\xf1\xe5\xed\xfc_2024\\DreamCast\\\xdf \xf1\xf2\xe0\xed\xf3 \xe7\xeb\xee\xe4\xe5\xe9\xea\xee\xe9, \xea\xee\xf2\xee\xf0\xe0\xff \xe2\xee\xe9\xe4\xb8\xf2 \xe2 \xe8\xf1\xf2\xee\xf0\xe8\xfe\\[DC] Rekishi ni Nokoru Akujo ni Naruzo - 04_Telegram.mp4" -lavfi "[0:v]settb=AVTB,setpts=PTS-STARTPTS,format=pix_fmts=yuv420p10,fps=24000/1001,scale=1920:1080:flags=bicubic[main];[1:v]settb=AVTB,setpts=PTS-STARTPTS,format=pix_fmts=yuv420p,fps=24000/1001,scale=1920:1080:flags=bicubic[ref];[main][ref]ssim=eof_action=endall:stats_file='D\\:/Convert/FFMetrics/logs/ssim_logfile-6.txt'" -f null -
Input #0, matroska,webm, from 'G:\Аниме\Онгоинги\!_36_Осень_2024\DreamCast\Я стану злодейкой, которая войдёт в историю\[DC] Rekishi ni Nokoru Akujo ni Naruzo - 04_Telegram_HEVC.mkv':
  Metadata:
    COMPATIBLE_BRANDS: isomiso2avc1mp41
    MAJOR_BRAND     : isom
    MINOR_VERSION   : 512
    ENCODER         : Lavf61.7.100
  Duration: 00:23:46.65, start: -0.021000, bitrate: 833 kb/s
  Stream #0:0: Video: hevc (Main 10), yuv420p10le(tv, bt709, progressive), 1920x1080 [SAR 1:1 DAR 16:9], 23.98 fps, 23.98 tbr, 1k tbn (default)
      Metadata:
        HANDLER_NAME    : VideoHandler
        VENDOR_ID       : [0][0][0][0]
        ENCODER         : Lavc61.19.100 libx265
        BPS             : 635973
        DURATION        : 00:23:46.549708333
        NUMBER_OF_FRAMES: 34203
        NUMBER_OF_BYTES : 113405910
        _STATISTICS_WRITING_APP: mkvpropedit v66.0.0 ('Josie') 64-bit
        _STATISTICS_WRITING_DATE_UTC: 2025-06-06 10:07:38
        _STATISTICS_TAGS: BPS DURATION NUMBER_OF_FRAMES NUMBER_OF_BYTES
  Stream #0:1: Audio: aac (LC), 48000 Hz, stereo, fltp (default)
      Metadata:
        HANDLER_NAME    : SoundHandler
        VENDOR_ID       : [0][0][0][0]
        ENCODER         : Lavc61.19.100 aac
        BPS             : 193573
        DURATION        : 00:23:46.645000000
        NUMBER_OF_FRAMES: 66875
        NUMBER_OF_BYTES : 34520126
        _STATISTICS_WRITING_APP: mkvpropedit v66.0.0 ('Josie') 64-bit
        _STATISTICS_WRITING_DATE_UTC: 2025-06-06 10:07:38
        _STATISTICS_TAGS: BPS DURATION NUMBER_OF_FRAMES NUMBER_OF_BYTES
Input #1, mov,mp4,m4a,3gp,3g2,mj2, from 'G:\Аниме\Онгоинги\!_36_Осень_2024\DreamCast\Я стану злодейкой, которая войдёт в историю\[DC] Rekishi ni Nokoru Akujo ni Naruzo - 04_Telegram.mp4':
  Metadata:
    major_brand     : isom
    minor_version   : 512
    compatible_brands: isomiso2avc1mp41
    encoder         : Lavf61.1.100
  Duration: 00:23:46.62, start: 0.000000, bitrate: 3395 kb/s
  Stream #1:0[0x1](und): Video: h264 (High) (avc1 / 0x31637661), yuv420p(tv, bt709, progressive), 1920x1080 [SAR 1:1 DAR 16:9], 3248 kb/s, 23.98 fps, 23.98 tbr, 24k tbn (default)
      Metadata:
        handler_name    : VideoHandler
        vendor_id       : [0][0][0][0]
        encoder         : Lavc61.3.100 h264_qsv
  Stream #1:1[0x2](und): Audio: aac (HE-AACv2) (mp4a / 0x6134706D), 48000 Hz, stereo, fltp, 144 kb/s (default)
      Metadata:
        handler_name    : SoundHandler
        vendor_id       : [0][0][0][0]
Stream mapping:
  Stream #0:0 (hevc) -> settb:default
  Stream #1:0 (h264) -> settb:default
  ssim:default -> Stream #0:0 (wrapped_avframe)
  Stream #0:1 -> #0:1 (aac (native) -> pcm_s16le (native))
Output #0, null, to 'pipe:':
  Metadata:
    COMPATIBLE_BRANDS: isomiso2avc1mp41
    MAJOR_BRAND     : isom
    MINOR_VERSION   : 512
    encoder         : Lavf61.7.100
  Stream #0:0: Video: wrapped_avframe, yuv420p10le(tv, bt709, progressive), 1920x1080 [SAR 1:1 DAR 16:9], q=2-31, 200 kb/s, 23.98 fps, 23.98 tbn
      Metadata:
        encoder         : Lavc61.19.100 wrapped_avframe
  Stream #0:1: Audio: pcm_s16le, 48000 Hz, stereo, s16, 1536 kb/s (default)
      Metadata:
        HANDLER_NAME    : SoundHandler
        VENDOR_ID       : [0][0][0][0]
        _STATISTICS_TAGS: BPS DURATION NUMBER_OF_FRAMES NUMBER_OF_BYTES
        BPS             : 193573
        DURATION        : 00:23:46.645000000
        NUMBER_OF_FRAMES: 66875
        NUMBER_OF_BYTES : 34520126
        _STATISTICS_WRITING_APP: mkvpropedit v66.0.0 ('Josie') 64-bit
        _STATISTICS_WRITING_DATE_UTC: 2025-06-06 10:07:38
        encoder         : Lavc61.19.100 pcm_s16le
frame=  176 fps=0.0 q=-0.0 size=N/A time=00:00:07.34 bitrate=N/A speed=14.3x    frame=  437 fps=426 q=-0.0 size=N/A time=00:00:18.22 bitrate=N/A speed=17.8x    frame=  663 fps=432 q=-0.0 size=N/A time=00:00:27.65 bitrate=N/A speed=  18x    frame=  942 fps=457 q=-0.0 size=N/A time=00:00:39.28 bitrate=N/A speed=19.1x    frame= 1208 fps=470 q=-0.0 size=N/A time=00:00:50.38 bitrate=N/A speed=19.6x    frame= 1454 fps=470 q=-0.0 size=N/A time=00:01:00.64 bitrate=N/A speed=19.6x    frame= 1689 fps=470 q=-0.0 size=N/A time=00:01:10.44 bitrate=N/A speed=19.6x    frame= 1956 fps=475 q=-0.0 size=N/A time=00:01:21.58 bitrate=N/A speed=19.8x    frame= 2236 fps=483 q=-0.0 size=N/A time=00:01:33.25 bitrate=N/A speed=20.1x    frame= 2505 fps=486 q=-0.0 size=N/A time=00:01:44.47 bitrate=N/A speed=20.3x    frame= 2753 fps=486 q=-0.0 size=N/A time=00:01:54.82 bitrate=N/A speed=20.3x    frame= 3017 fps=488 q=-0.0 size=N/A time=00:02:05.83 bitrate=N/A speed=20.4x    frame= 3251 fps=486 q=-0.0 size=N/A time=00:02:15.59 bitrate=N/A speed=20.3x    frame= 3451 fps=478 q=-0.0 size=N/A time=00:02:23.93 bitrate=N/A speed=  20x    frame= 3652 fps=473 q=-0.0 size=N/A time=00:02:32.31 bitrate=N/A speed=19.7x    frame= 3867 fps=469 q=-0.0 size=N/A time=00:02:41.28 bitrate=N/A speed=19.6x    frame= 4080 fps=466 q=-0.0 size=N/A time=00:02:50.17 bitrate=N/A speed=19.4x    frame= 4307 fps=464 q=-0.0 size=N/A time=00:02:59.63 bitrate=N/A speed=19.4x    frame= 4486 fps=458 q=-0.0 size=N/A time=00:03:07.10 bitrate=N/A speed=19.1x    frame= 4714 fps=458 q=-0.0 size=N/A time=00:03:16.61 bitrate=N/A speed=19.1x    frame= 4918 fps=454 q=-0.0 size=N/A time=00:03:25.12 bitrate=N/A speed=18.9x    frame= 5097 fps=450 q=-0.0 size=N/A time=00:03:32.58 bitrate=N/A speed=18.8x    frame= 5305 fps=448 q=-0.0 size=N/A time=00:03:41.26 bitrate=N/A speed=18.7x    frame= 5579 fps=451 q=-0.0 size=N/A time=00:03:52.69 bitrate=N/A speed=18.8x    frame= 5851 fps=454 q=-0.0 size=N/A time=00:04:04.03 bitrate=N/A speed=18.9x    frame= 6105 fps=455 q=-0.0 size=N/A time=00:04:14.62 bitrate=N/A speed=  19x    frame= 6388 fps=459 q=-0.0 size=N/A time=00:04:26.43 bitrate=N/A speed=19.1x    frame= 6645 fps=461 q=-0.0 size=N/A time=00:04:37.15 bitrate=N/A speed=19.2x    frame= 6910 fps=462 q=-0.0 size=N/A time=00:04:48.20 bitrate=N/A speed=19.3x    frame= 7194 fps=465 q=-0.0 size=N/A time=00:05:00.04 bitrate=N/A speed=19.4x    frame= 7461 fps=467 q=-0.0 size=N/A time=00:05:11.18 bitrate=N/A speed=19.5x    frame= 7736 fps=469 q=-0.0 size=N/A time=00:05:22.65 bitrate=N/A speed=19.6x    frame= 8012 fps=471 q=-0.0 size=N/A time=00:05:34.16 bitrate=N/A speed=19.6x    frame= 8283 fps=473 q=-0.0 size=N/A time=00:05:45.47 bitrate=N/A speed=19.7x    frame= 8555 fps=474 q=-0.0 size=N/A time=00:05:56.81 bitrate=N/A speed=19.8x    frame= 8800 fps=474 q=-0.0 size=N/A time=00:06:07.03 bitrate=N/A speed=19.8x    frame= 9027 fps=473 q=-0.0 size=N/A time=00:06:16.50 bitrate=N/A speed=19.7x    frame= 9265 fps=473 q=-0.0 size=N/A time=00:06:26.42 bitrate=N/A speed=19.7x    frame= 9518 fps=473 q=-0.0 size=N/A time=00:06:36.97 bitrate=N/A speed=19.7x    frame= 9785 fps=475 q=-0.0 size=N/A time=00:06:48.11 bitrate=N/A speed=19.8x    frame=10055 fps=476 q=-0.0 size=N/A time=00:06:59.37 bitrate=N/A speed=19.8x    frame=10322 fps=477 q=-0.0 size=N/A time=00:07:10.51 bitrate=N/A speed=19.9x    frame=10555 fps=476 q=-0.0 size=N/A time=00:07:20.23 bitrate=N/A speed=19.9x    frame=10803 fps=476 q=-0.0 size=N/A time=00:07:30.57 bitrate=N/A speed=19.9x    frame=11064 fps=477 q=-0.0 size=N/A time=00:07:41.46 bitrate=N/A speed=19.9x    frame=11334 fps=478 q=-0.0 size=N/A time=00:07:52.72 bitrate=N/A speed=19.9x    frame=11589 fps=478 q=-0.0 size=N/A time=00:08:03.35 bitrate=N/A speed=19.9x    frame=11828 fps=478 q=-0.0 size=N/A time=00:08:13.32 bitrate=N/A speed=19.9x    frame=12080 fps=478 q=-0.0 size=N/A time=00:08:23.83 bitrate=N/A speed=  20x    frame=12327 fps=478 q=-0.0 size=N/A time=00:08:34.13 bitrate=N/A speed=19.9x    frame=12579 fps=478 q=-0.0 size=N/A time=00:08:44.64 bitrate=N/A speed=  20x    frame=12822 fps=478 q=-0.0 size=N/A time=00:08:54.78 bitrate=N/A speed=19.9x    frame=13066 fps=478 q=-0.0 size=N/A time=00:09:04.96 bitrate=N/A speed=19.9x    frame=13230 fps=475 q=-0.0 size=N/A time=00:09:11.80 bitrate=N/A speed=19.8x    frame=13465 fps=475 q=-0.0 size=N/A time=00:09:21.60 bitrate=N/A speed=19.8x    frame=13688 fps=474 q=-0.0 size=N/A time=00:09:30.90 bitrate=N/A speed=19.8x    frame=13931 fps=474 q=-0.0 size=N/A time=00:09:41.03 bitrate=N/A speed=19.8x    frame=14185 fps=474 q=-0.0 size=N/A time=00:09:51.63 bitrate=N/A speed=19.8x    frame=14444 fps=475 q=-0.0 size=N/A time=00:10:02.43 bitrate=N/A speed=19.8x    frame=14694 fps=475 q=-0.0 size=N/A time=00:10:12.86 bitrate=N/A speed=19.8x    frame=14949 fps=475 q=-0.0 size=N/A time=00:10:23.49 bitrate=N/A speed=19.8x    frame=15207 fps=476 q=-0.0 size=N/A time=00:10:34.25 bitrate=N/A speed=19.8x    frame=15465 fps=476 q=-0.0 size=N/A time=00:10:45.01 bitrate=N/A speed=19.9x    frame=15733 fps=477 q=-0.0 size=N/A time=00:10:56.19 bitrate=N/A speed=19.9x    frame=16034 fps=478 q=-0.0 size=N/A time=00:11:08.70 bitrate=N/A speed=  20x    frame=16294 fps=479 q=-0.0 size=N/A time=00:11:19.59 bitrate=N/A speed=  20x    frame=16555 fps=479 q=-0.0 size=N/A time=00:11:30.48 bitrate=N/A speed=  20x    frame=16824 fps=480 q=-0.0 size=N/A time=00:11:41.70 bitrate=N/A speed=  20x    frame=17103 fps=481 q=-0.0 size=N/A time=00:11:53.33 bitrate=N/A speed=20.1x    frame=17365 fps=481 q=-0.0 size=N/A time=00:12:04.26 bitrate=N/A speed=20.1x    frame=17622 fps=481 q=-0.0 size=N/A time=00:12:14.98 bitrate=N/A speed=20.1x    frame=17862 fps=481 q=-0.0 size=N/A time=00:12:24.99 bitrate=N/A speed=20.1x    frame=18097 fps=481 q=-0.0 size=N/A time=00:12:34.79 bitrate=N/A speed=20.1x    frame=18353 fps=481 q=-0.0 size=N/A time=00:12:45.47 bitrate=N/A speed=20.1x    frame=18613 fps=481 q=-0.0 size=N/A time=00:12:56.31 bitrate=N/A speed=20.1x    frame=18898 fps=482 q=-0.0 size=N/A time=00:13:08.20 bitrate=N/A speed=20.1x    frame=19160 fps=483 q=-0.0 size=N/A time=00:13:19.13 bitrate=N/A speed=20.1x    frame=19393 fps=482 q=-0.0 size=N/A time=00:13:28.84 bitrate=N/A speed=20.1x    frame=19637 fps=482 q=-0.0 size=N/A time=00:13:39.02 bitrate=N/A speed=20.1x    frame=19905 fps=483 q=-0.0 size=N/A time=00:13:50.20 bitrate=N/A speed=20.1x    frame=20172 fps=483 q=-0.0 size=N/A time=00:14:01.34 bitrate=N/A speed=20.1x    frame=20453 fps=484 q=-0.0 size=N/A time=00:14:13.06 bitrate=N/A speed=20.2x    frame=20704 fps=484 q=-0.0 size=N/A time=00:14:23.52 bitrate=N/A speed=20.2x    frame=20952 fps=484 q=-0.0 size=N/A time=00:14:33.87 bitrate=N/A speed=20.2x    frame=21188 fps=483 q=-0.0 size=N/A time=00:14:43.71 bitrate=N/A speed=20.2x    frame=21427 fps=483 q=-0.0 size=N/A time=00:14:53.68 bitrate=N/A speed=20.2x    frame=21665 fps=483 q=-0.0 size=N/A time=00:15:03.61 bitrate=N/A speed=20.1x    frame=21912 fps=483 q=-0.0 size=N/A time=00:15:13.91 bitrate=N/A speed=20.1x    frame=22181 fps=483 q=-0.0 size=N/A time=00:15:25.13 bitrate=N/A speed=20.2x    frame=22433 fps=483 q=-0.0 size=N/A time=00:15:35.64 bitrate=N/A speed=20.2x    frame=22713 fps=484 q=-0.0 size=N/A time=00:15:47.32 bitrate=N/A speed=20.2x    frame=22976 fps=484 q=-0.0 size=N/A time=00:15:58.29 bitrate=N/A speed=20.2x    frame=23257 fps=485 q=-0.0 size=N/A time=00:16:10.01 bitrate=N/A speed=20.2x    frame=23514 fps=485 q=-0.0 size=N/A time=00:16:20.72 bitrate=N/A speed=20.2x    frame=23751 fps=485 q=-0.0 size=N/A time=00:16:30.61 bitrate=N/A speed=20.2x    frame=23990 fps=485 q=-0.0 size=N/A time=00:16:40.58 bitrate=N/A speed=20.2x    frame=24243 fps=485 q=-0.0 size=N/A time=00:16:51.13 bitrate=N/A speed=20.2x    frame=24496 fps=485 q=-0.0 size=N/A time=00:17:01.68 bitrate=N/A speed=20.2x    frame=24736 fps=485 q=-0.0 size=N/A time=00:17:11.69 bitrate=N/A speed=20.2x    frame=25015 fps=485 q=-0.0 size=N/A time=00:17:23.33 bitrate=N/A speed=20.2x    frame=25289 fps=486 q=-0.0 size=N/A time=00:17:34.76 bitrate=N/A speed=20.3x    frame=25550 fps=486 q=-0.0 size=N/A time=00:17:45.64 bitrate=N/A speed=20.3x    frame=25785 fps=486 q=-0.0 size=N/A time=00:17:55.44 bitrate=N/A speed=20.3x    frame=26035 fps=486 q=-0.0 size=N/A time=00:18:05.87 bitrate=N/A speed=20.3x    frame=26317 fps=486 q=-0.0 size=N/A time=00:18:17.63 bitrate=N/A speed=20.3x    frame=26569 fps=486 q=-0.0 size=N/A time=00:18:28.14 bitrate=N/A speed=20.3x    frame=26866 fps=487 q=-0.0 size=N/A time=00:18:40.53 bitrate=N/A speed=20.3x    frame=27138 fps=487 q=-0.0 size=N/A time=00:18:51.88 bitrate=N/A speed=20.3x    frame=27412 fps=488 q=-0.0 size=N/A time=00:19:03.30 bitrate=N/A speed=20.3x    frame=27688 fps=488 q=-0.0 size=N/A time=00:19:14.82 bitrate=N/A speed=20.4x    frame=27934 fps=488 q=-0.0 size=N/A time=00:19:25.08 bitrate=N/A speed=20.4x    frame=28183 fps=488 q=-0.0 size=N/A time=00:19:35.50 bitrate=N/A speed=20.4x    frame=28452 fps=488 q=-0.0 size=N/A time=00:19:46.68 bitrate=N/A speed=20.4x    frame=28688 fps=488 q=-0.0 size=N/A time=00:19:56.52 bitrate=N/A speed=20.4x    frame=28952 fps=488 q=-0.0 size=N/A time=00:20:07.53 bitrate=N/A speed=20.4x    frame=29220 fps=489 q=-0.0 size=N/A time=00:20:18.71 bitrate=N/A speed=20.4x    frame=29482 fps=489 q=-0.0 size=N/A time=00:20:29.64 bitrate=N/A speed=20.4x    frame=29727 fps=489 q=-0.0 size=N/A time=00:20:39.86 bitrate=N/A speed=20.4x    frame=30006 fps=489 q=-0.0 size=N/A time=00:20:51.50 bitrate=N/A speed=20.4x    frame=30286 fps=490 q=-0.0 size=N/A time=00:21:03.17 bitrate=N/A speed=20.4x    frame=30573 fps=490 q=-0.0 size=N/A time=00:21:15.14 bitrate=N/A speed=20.4x    frame=30829 fps=490 q=-0.0 size=N/A time=00:21:25.82 bitrate=N/A speed=20.4x    frame=31117 fps=491 q=-0.0 size=N/A time=00:21:37.83 bitrate=N/A speed=20.5x    frame=31377 fps=491 q=-0.0 size=N/A time=00:21:48.68 bitrate=N/A speed=20.5x    frame=31656 fps=491 q=-0.0 size=N/A time=00:22:00.31 bitrate=N/A speed=20.5x    frame=31882 fps=491 q=-0.0 size=N/A time=00:22:09.74 bitrate=N/A speed=20.5x    frame=32110 fps=490 q=-0.0 size=N/A time=00:22:19.25 bitrate=N/A speed=20.5x    frame=32363 fps=490 q=-0.0 size=N/A time=00:22:29.80 bitrate=N/A speed=20.5x    frame=32587 fps=490 q=-0.0 size=N/A time=00:22:39.14 bitrate=N/A speed=20.4x    frame=32817 fps=490 q=-0.0 size=N/A time=00:22:48.74 bitrate=N/A speed=20.4x    frame=33098 fps=490 q=-0.0 size=N/A time=00:23:00.46 bitrate=N/A speed=20.4x    frame=33351 fps=490 q=-0.0 size=N/A time=00:23:11.01 bitrate=N/A speed=20.4x    frame=33590 fps=490 q=-0.0 size=N/A time=00:23:20.98 bitrate=N/A speed=20.4x    frame=33852 fps=490 q=-0.0 size=N/A time=00:23:31.91 bitrate=N/A speed=20.4x    frame=34113 fps=490 q=-0.0 size=N/A time=00:23:42.79 bitrate=N/A speed=20.4x    [Parsed_ssim_10 @ 00000136e5fe93c0] SSIM Y:0.995056 (23.059267) U:0.993732 (22.028712) V:0.994201 (22.366118) All:0.994693 (22.751341)
[out#0/null @ 00000136d92b6540] video:14697KiB audio:267500KiB subtitle:0KiB other streams:0KiB global headers:0KiB muxing overhead: unknown
frame=34203 fps=490 q=-0.0 Lsize=N/A time=00:23:46.55 bitrate=N/A speed=20.4x    
